#!OML:ASF I:\Actors\actors\Patient Classification 2\Patient 1\Session 1\actor1.ASF
:FULLY-SPECIFIED
:DEGREES
676
root -0.736973 18.8355 5.60341 4.61052 0.0933092 -0.415356
lowerback 10.9128 -0.301207 -0.451502
upperback -0.940706 -0.397264 0.897834
thorax -7.11732 -0.157854 1.26836
lowerneck -16.946 -1.33396 -2.76188
upperneck 3.5636 -1.50216 3.69771
head 3.81818 -0.57165 1.46755
rclavicle 4.52235e-015 1.98785e-016
rhumerus 16.0788 20.1557 -66.0433
rradius 50.0942
rwrist 1.09477
rhand -15.8535 -39.2925
rfingers 7.12502
rthumb 10.3415 -69.0182
lclavicle 4.52235e-015 1.98785e-016
lhumerus 16.2138 -11.4568 71.1202
lradius 57.5599
lwrist 24.8566
lhand -13.5201 -15.116
lfingers 7.12502
lthumb 12.5918 14.4845
rfemur 3.2497 6.98195 14.9054
rtibia 6.36111e-015
rfoot -21.1624 -16.4363
rtoes 0.30514
lfemur -9.14948 -5.11963 -13.3222
ltibia 21.0378
lfoot -18.9894 13.0605
ltoes -55.3614
677
root -0.711229 18.8384 5.58081 4.72557 -0.24814 -0.446599
lowerback 10.9242 -0.221105 -0.0622465
upperback -1.0991 -0.246404 0.778674
thorax -7.29845 -0.10076 0.898755
lowerneck -16.7633 -1.35031 -2.78308
upperneck 3.79568 -1.53698 3.78549
head 3.86408 -0.584812 1.49569
rclavicle 2.73329e-016 3.18055e-015
rhumerus 14.5187 20.2284 -66.9698
rradius 50.2088
rwrist 1.12739
rhand -15.9036 -39.4324
rfingers 7.12502
rthumb 10.2931 -69.1605
lclavicle 2.73329e-016 3.18055e-015
lhumerus 14.7592 -11.4076 71.874
lradius 57.6601
lwrist 24.7064
lhand -13.4485 -15.1447
lfingers 7.12502
lthumb 12.6609 14.4516
rfemur 2.88808 7.31248 14.7709
rtibia 1.27222e-014
rfoot -20.8994 -16.6745
rtoes -0.542509
lfemur -9.26836 -5.40854 -13.4167
ltibia 20.9857
lfoot -19.194 13.603
ltoes -55.2098
678
root -0.712677 18.8366 5.5743 4.63941 -0.263231 -0.482498
lowerback 10.9184 -0.199791 0.0123322
upperback -1.16659 -0.210179 0.743655
thorax -7.36819 -0.086527 0.813941
lowerneck -16.4329 -1.37471 -2.81785
upperneck 3.92481 -1.58042 3.87155
head 3.85559 -0.604578 1.52509
rclavicle 4.47266e-016 7.95139e-016
rhumerus 12.9118 20.235 -67.9143
rradius 50.2971
rwrist 1.20104
rhand -16.1437 -39.6471
rfingers 7.12502
rthumb 10.0615 -69.3866
lclavicle 4.47266e-016 7.95139e-016
lhumerus 13.2773 -11.4472 72.5582
lradius 57.7734
lwrist 24.6603
lhand -13.4665 -15.2244
lfingers 7.12502
lthumb 12.6435 14.373
rfemur 2.95804 7.33891 14.8268
rtibia -3.18055e-015
rfoot -20.8408 -16.6991
rtoes -0.844918
lfemur -9.16935 -5.33552 -13.3728
ltibia 20.9465
lfoot -19.1653 13.5273
ltoes -55.194
679
root -0.739818 18.8306 5.57983 4.32525 -0.137277 -0.482515
lowerback 11.0457 -0.154934 -0.243389
upperback -1.15916 -0.184332 0.746408
thorax -7.43256 -0.0631878 0.957548
lowerneck -16.192 -1.43848 -2.85119
upperneck 4.15705 -1.67571 3.93528
head 3.89415 -0.649786 1.54307
rclavicle 1.42876e-015 7.95139e-016
rhumerus 11.1849 20.0792 -68.8885
rradius 50.3414
rwrist 1.42876
rhand -16.1544 -39.5645
rfingers 7.12502
rthumb 10.0512 -69.3044
lclavicle 1.42876e-015 7.95139e-016
lhumerus 11.8238 -11.6797 73.1633
lradius 57.8259
lwrist 24.7316
lhand -13.5619 -15.2885
lfingers 7.12502
lthumb 12.5515 14.3145
rfemur 3.43334 7.24334 15.0006
rtibia -1.43125e-014
rfoot -21.0304 -16.5142
rtoes -0.324715
lfemur -8.79287 -4.94235 -13.2671
ltibia 20.9174
lfoot -19.0161 13.0069
ltoes -55.2723
680
root -0.742671 18.8276 5.57805 4.23663 0.0719853 -0.437407
lowerback 11.0458 -0.191983 -0.238037
upperback -1.23975 -0.23536 0.709465
thorax -7.51808 -0.0885467 0.924833
lowerneck -16.0577 -1.47753 -2.8576
upperneck 4.45991 -1.73399 3.89208
head 3.96831 -0.681059 1.52628
rclavicle -4.29872e-015 6.95746e-016
rhumerus 9.48194 20.0248 -69.7614
rradius 50.3726
rwrist 1.69662
rhand -16.0592 -39.3467
rfingers 7.12502
rthumb 10.143 -69.0822
lclavicle -4.29872e-015 6.95746e-016
lhumerus 10.317 -11.7933 73.7873
lradius 57.8359
lwrist 24.7101
lhand -13.6338 -15.321
lfingers 7.12502
lthumb 12.4822 14.2862
rfemur 3.59682 7.03906 14.9951
rtibia -1.27222e-014
rfoot -21.1898 -16.3624
rtoes 0.330076
lfemur -8.72612 -5.0157 -13.2874
ltibia 20.8905
lfoot -18.9931 12.8639
ltoes -55.2776
681
root -0.736379 18.825 5.57247 4.19662 0.181048 -0.421854
lowerback 11.0541 -0.234057 -0.182806
upperback -1.36024 -0.282927 0.715337
thorax -7.65124 -0.113078 0.90905
lowerneck -16.0228 -1.50458 -2.92949
upperneck 4.92515 -1.76725 3.87252
head 4.1082 -0.698221 1.52908
rclavicle 2.74571e-015 -3.97569e-015
rhumerus 7.86295 20.163 -70.4892
rradius 50.3937
rwrist 1.74321
rhand -16.0459 -39.3982
rfingers 7.12502
rthumb 10.1559 -69.1331
lclavicle 2.74571e-015 -3.97569e-015
lhumerus 8.72027 -11.7278 74.4596
lradius 57.846
lwrist 24.4773
lhand -13.51 -15.3361
lfingers 7.12502
lthumb 12.6016 14.2639
rfemur 3.65079 6.93222 14.9685
rtibia 9.54166e-015
rfoot -21.3166 -16.2636
rtoes 0.785616
lfemur -8.72213 -5.14453 -13.3208
ltibia 20.8944
lfoot -19.031 12.8784
ltoes -55.2742
682
root -0.725086 18.8243 5.56222 4.19902 0.0370009 -0.458831
lowerback 11.0593 -0.179891 -0.0343178
upperback -1.47452 -0.190394 0.706425
thorax -7.77887 -0.0740028 0.800429
lowerneck -16.0223 -1.52604 -3.0212
upperneck 5.45821 -1.79422 3.89851
head 4.27526 -0.709504 1.5497
rclavicle -5.30507e-015 1.98785e-015
rhumerus 6.279 20.1517 -71.1933
rradius 50.4124
rwrist 1.72179
rhand -16.0205 -39.7474
rfingers 7.12502
rthumb 10.1804 -69.4811
lclavicle -5.30507e-015 1.98785e-015
lhumerus 7.16086 -11.7676 75.0409
lradius 57.9038
lwrist 24.1906
lhand -13.2684 -15.3083
lfingers 7.12502
lthumb 12.8345 14.2771
rfemur 3.56241 7.07785 14.9478
rtibia -1.27222e-014
rfoot -21.2814 -16.3283
rtoes 0.567434
lfemur -8.73554 -5.2076 -13.3404
ltibia 20.9155
lfoot -19.1297 13.0623
ltoes -55.2855
